<?xml version="1.0" encoding="UTF-8"?>
<svg xmlns="http://www.w3.org/2000/svg" xmlns:xlink="http://www.w3.org/1999/xlink" width="32px" height="40px" viewBox="0 0 32 39" version="1.1">
<g id="surface1">
<path style=" stroke:none;fill-rule:nonzero;fill:rgb(1.568627%,16.862745%,34.901961%);fill-opacity:1;" d="M 9.972656 9.753906 L 0.105469 19.5 L 6.207031 25.523438 L 19.050781 12.839844 C 26.113281 5.867188 31.894531 0.125 31.894531 0.0859375 C 31.894531 0.03125 29.183594 0 25.867188 0 L 19.851562 0 Z M 9.972656 9.753906 "/>
<path style=" stroke:none;fill-rule:nonzero;fill:rgb(1.568627%,16.862745%,34.901961%);fill-opacity:1;" d="M 14.523438 23.230469 L 9.203125 28.484375 L 14.535156 33.746094 L 19.851562 39 L 25.878906 39 C 29.183594 39 31.894531 38.96875 31.894531 38.914062 C 31.894531 38.875 29.527344 36.503906 26.648438 33.664062 L 21.40625 28.484375 L 26.648438 23.304688 C 29.527344 20.453125 31.894531 18.09375 31.894531 18.042969 C 31.894531 18 29.183594 17.96875 25.867188 17.96875 L 19.851562 17.96875 Z M 14.523438 23.230469 "/>
</g>
</svg>
